<svg width="133" height="133" viewBox="0 0 133 133" fill="none" xmlns="http://www.w3.org/2000/svg">
<circle cx="66.5" cy="66.5" r="66.5" fill="white"/>
<path d="M24.688 66.36C25.664 66.568 26.448 67.056 27.04 67.824C27.632 68.576 27.928 69.44 27.928 70.416C27.928 71.824 27.432 72.944 26.44 73.776C25.464 74.592 24.096 75 22.336 75H14.488V58.152H22.072C23.784 58.152 25.12 58.544 26.08 59.328C27.056 60.112 27.544 61.176 27.544 62.52C27.544 63.512 27.28 64.336 26.752 64.992C26.24 65.648 25.552 66.104 24.688 66.36ZM18.592 64.968H21.28C21.952 64.968 22.464 64.824 22.816 64.536C23.184 64.232 23.368 63.792 23.368 63.216C23.368 62.64 23.184 62.2 22.816 61.896C22.464 61.592 21.952 61.44 21.28 61.44H18.592V64.968ZM21.616 71.688C22.304 71.688 22.832 71.536 23.2 71.232C23.584 70.912 23.776 70.456 23.776 69.864C23.776 69.272 23.576 68.808 23.176 68.472C22.792 68.136 22.256 67.968 21.568 67.968H18.592V71.688H21.616ZM43.5323 61.608V75H39.4283V73.176C39.0123 73.768 38.4443 74.248 37.7243 74.616C37.0203 74.968 36.2363 75.144 35.3723 75.144C34.3483 75.144 33.4443 74.92 32.6603 74.472C31.8763 74.008 31.2683 73.344 30.8363 72.48C30.4043 71.616 30.1883 70.6 30.1883 69.432V61.608H34.2683V68.88C34.2683 69.776 34.5003 70.472 34.9643 70.968C35.4283 71.464 36.0523 71.712 36.8363 71.712C37.6363 71.712 38.2683 71.464 38.7323 70.968C39.1963 70.472 39.4283 69.776 39.4283 68.88V61.608H43.5323ZM53.9442 71.52V75H51.8562C50.3682 75 49.2082 74.64 48.3762 73.92C47.5442 73.184 47.1282 71.992 47.1282 70.344V65.016H45.4962V61.608H47.1282V58.344H51.2322V61.608H53.9202V65.016H51.2322V70.392C51.2322 70.792 51.3282 71.08 51.5202 71.256C51.7122 71.432 52.0322 71.52 52.4802 71.52H53.9442ZM63.6942 71.52V75H61.6062C60.1182 75 58.9582 74.64 58.1262 73.92C57.2942 73.184 56.8782 71.992 56.8782 70.344V65.016H55.2462V61.608H56.8782V58.344H60.9822V61.608H63.6702V65.016H60.9822V70.392C60.9822 70.792 61.0782 71.08 61.2702 71.256C61.4622 71.432 61.7822 71.52 62.2302 71.52H63.6942ZM72.0762 75.192C70.7642 75.192 69.5802 74.912 68.5242 74.352C67.4842 73.792 66.6602 72.992 66.0522 71.952C65.4602 70.912 65.1642 69.696 65.1642 68.304C65.1642 66.928 65.4682 65.72 66.0762 64.68C66.6842 63.624 67.5162 62.816 68.5722 62.256C69.6282 61.696 70.8122 61.416 72.1242 61.416C73.4362 61.416 74.6202 61.696 75.6762 62.256C76.7322 62.816 77.5642 63.624 78.1722 64.68C78.7802 65.72 79.0842 66.928 79.0842 68.304C79.0842 69.68 78.7722 70.896 78.1482 71.952C77.5402 72.992 76.7002 73.792 75.6282 74.352C74.5722 74.912 73.3882 75.192 72.0762 75.192ZM72.0762 71.64C72.8602 71.64 73.5242 71.352 74.0682 70.776C74.6282 70.2 74.9082 69.376 74.9082 68.304C74.9082 67.232 74.6362 66.408 74.0922 65.832C73.5642 65.256 72.9082 64.968 72.1242 64.968C71.3242 64.968 70.6602 65.256 70.1322 65.832C69.6042 66.392 69.3402 67.216 69.3402 68.304C69.3402 69.376 69.5962 70.2 70.1082 70.776C70.6362 71.352 71.2922 71.64 72.0762 71.64ZM89.4214 61.464C90.9894 61.464 92.2374 61.976 93.1654 63C94.1094 64.008 94.5814 65.4 94.5814 67.176V75H90.5014V67.728C90.5014 66.832 90.2694 66.136 89.8054 65.64C89.3414 65.144 88.7174 64.896 87.9334 64.896C87.1494 64.896 86.5254 65.144 86.0614 65.64C85.5974 66.136 85.3654 66.832 85.3654 67.728V75H81.2614V61.608H85.3654V63.384C85.7814 62.792 86.3414 62.328 87.0454 61.992C87.7494 61.64 88.5414 61.464 89.4214 61.464ZM101.465 58.152V68.232C101.465 69.24 101.713 70.016 102.209 70.56C102.705 71.104 103.433 71.376 104.393 71.376C105.353 71.376 106.089 71.104 106.601 70.56C107.113 70.016 107.369 69.24 107.369 68.232V58.152H111.473V68.208C111.473 69.712 111.153 70.984 110.513 72.024C109.873 73.064 109.009 73.848 107.921 74.376C106.849 74.904 105.649 75.168 104.321 75.168C102.993 75.168 101.801 74.912 100.745 74.4C99.7053 73.872 98.8813 73.088 98.2733 72.048C97.6653 70.992 97.3613 69.712 97.3613 68.208V58.152H101.465ZM118.459 58.152V75H114.355V58.152H118.459Z" fill="black"/>
</svg>
